<svg width="2105" height="296" viewBox="0 0 2105 296" fill="none" xmlns="http://www.w3.org/2000/svg">
<g clip-path="url(#clip0_355_3779)">
<g clip-path="url(#clip1_355_3779)">
<path d="M2104.7 0H0V296H2104.7" fill="#189CAE"/>
<path fill-rule="evenodd" clip-rule="evenodd" d="M48.7 175.8H62.7V158.6L48.7 152.3V175.8Z" fill="url(#paint0_linear_355_3779)"/>
<path fill-rule="evenodd" clip-rule="evenodd" d="M2037.1 272.1H1809.4C1807.4 272.1 1805.8 274.1 1805.8 272.1H1331C1331 273.9 1329.5 272.1 1327.7 272.1L836.4 271.1H376.3H62.7V158.6V154.3C62.7 153.1 63.7 152.1 64.9 152.1H90.2C91.4 152.1 92.4 151.1 92.4 149.9V120.4C92.4 119.9 92.6 119.4 92.9 119V118.5C92.9 117.7 93.3 116.9 94 116.6L126 83.5C126.6 83.1 127.4 83.1 128.1 83.5L161.2 116.7C162 117.1 162.4 117.8 162.4 118.7V129H191.8C193 129 194 130 194 131.2V175.8H208.4V97.4C208.4 95.6 210.4 94.6 211.9 95.5L242.2 115.5C242.8 115.9 243.2 116.6 243.2 117.4L242.5 175.8H278V99.1C278 98.6 278.2 98.1 278.5 97.7L293.6 78.4C294.5 77.3 296.2 77.3 297.1 78.4L312.2 97.7C312.5 98.1 312.7 98.6 312.7 99.1V170.8H370.6V134.2C370.6 133 371.6 132 372.8 132H398C399.2 132 400.2 131 400.2 129.8V100.3C400.2 99.1 401.2 98.1 402.4 98.1H449C450.2 98.1 451.2 99.1 451.2 100.3V129.8C451.2 131 452.2 132 453.4 132H483C484.2 132 485.2 133 485.2 134.2V171.7H506.2V110.5C506.2 109.3 507.2 108.3 508.4 108.3H512.4C513.6 108.3 514.6 107.3 514.6 106.1V93.4C514.6 92.2 515.6 91.2 516.8 91.2H554.8C556 91.2 557 92.2 557 93.4V106C557 107.2 558 108.2 559.2 108.2H563.2C564.4 108.2 565.4 109.2 565.4 110.4V171.6H580.5V93.2C580.5 91.4 582.5 90.4 584 91.3L614.3 111.3C614.9 111.7 615.3 112.4 615.3 113.2L614.6 171.6H631V154.2C631 153.3 631.6 152.4 632.5 152.1L676.2 136.2C676.9 116.5 677.4 112.2 677.6 110.8C677.6 110.5 677.7 110.3 677.7 110.1V104.8C677.7 103.2 679.3 102.1 680.8 102.7L727.3 135.1C728.1 135.4 728.7 136.3 728.7 137.2V171.6H745.9V110.5C745.9 109.7 746.3 108.9 747 108.6L783 70.6C783.6 70.2 784.4 70.2 785.1 70.6L825.3 101.6C826.1 102 826.5 102.7 826.5 103.6V158.8H850.9V93.6C850.9 93 851.3 92.4 851.9 92.2L886.4 79.7C887 79.5 887.4 78.9 887.4 78.3V64.9C887.4 63.8 888.5 63.1 889.5 63.5L926.3 78.8C926.9 79 927.2 79.6 927.2 80.2V158.8H940.4V71.2C940.4 70.7 940.7 70.2 941.2 69.9L969.6 54.1C970 53.9 970.5 53.8 971 54.1L1002.6 69.9C1003.1 70.2 1003.4 70.7 1003.4 71.2V158.8H1028V81.9C1028 81.6 1028.1 81.2 1028.3 81L1040.4 65.6C1041 64.8 1042.1 64.8 1042.7 65.6L1054.8 81C1055 81.3 1055.1 81.6 1055.1 81.9V158.8H1072.5V94.2C1072.5 93.4 1073.2 92.7 1074 92.7H1094.2C1095 92.7 1095.7 92 1095.7 91.2V66.8C1095.7 66.4 1095.9 66 1096.1 65.8L1121.1 40.8C1121.7 40.2 1122.6 40.2 1123.2 40.8L1148.2 65.8C1148.5 66.1 1148.6 66.5 1148.6 66.8V74.6C1148.6 75.4 1149.3 76.1 1150.1 76.1H1170.3C1171.1 76.1 1171.8 76.8 1171.8 77.6V158.8H1179.8V71.7C1179.8 70.5 1181.1 69.8 1182.1 70.5L1206.2 86.4C1206.6 86.7 1206.9 87.2 1206.9 87.7L1206.2 158.8H1215V82.2C1215 81.4 1215.7 80.7 1216.5 80.7H1220.2C1221 80.7 1221.7 80 1221.7 79.2V69C1221.7 68.2 1222.4 67.5 1223.2 67.5H1236.6V47.6C1236.6 46.7 1237.4 45.9 1238.2 45.9C1239.1 45.9 1239.9 46.6 1239.9 47.6V67.5H1253.3C1254.1 67.5 1254.8 68.2 1254.8 69V79.3C1254.8 80.1 1255.5 80.8 1256.3 80.8H1260C1260.8 80.8 1261.5 81.5 1261.5 82.3V108.6L1273.1 123.4C1273.3 123.7 1273.4 124 1273.4 124.3V158.9H1328C1328.5 158.9 1328.9 159 1329.3 159.2H1843.8C1844.7 159.2 1845.6 159.5 1846.3 160V86.5C1846.3 85.7 1847 85 1847.8 85H1868C1868.8 85 1869.5 84.3 1869.5 83.5V60C1869.5 59.2 1870.2 58.5 1871 58.5H1907.8C1908.6 58.5 1909.3 59.2 1909.3 60V83.5C1909.3 84.3 1910 85 1910.8 85H1934.3C1935.1 85 1935.8 85.7 1935.8 86.5V161.3H1953.3V77.2C1953.3 76.4 1954 75.7 1954.8 75.7H1958.5C1959.3 75.7 1960 75 1960 74.2V64C1960 63.2 1960.7 62.5 1961.5 62.5H1974.9V42.6C1974.9 41.7 1975.7 40.9 1976.6 40.9C1977.5 40.9 1978.3 41.6 1978.3 42.6V62.5H1991.7C1992.5 62.5 1993.2 63.2 1993.2 64V74.3C1993.2 75.1 1993.9 75.8 1994.7 75.8H1998.4C1999.2 75.8 1999.9 76.5 1999.9 77.3V161.4H2010.6V45.6C2010.6 44.4 2011.9 43.7 2012.9 44.4L2037 60.3C2037.4 60.6 2037.7 61.1 2037.7 61.6V161.3V272.1H2037.1Z" fill="url(#paint1_linear_355_3779)"/>
<path fill-rule="evenodd" clip-rule="evenodd" d="M1229.8 199.5V187.9C1229.8 186.7 1228.8 185.7 1227.6 185.7H1202.4C1201.2 185.7 1200.2 184.7 1200.2 183.5V134C1200.2 133.5 1200 133 1199.7 132.6V132.1C1199.7 131.3 1199.2 130.5 1198.5 130.2L1166.5 97.1C1165.9 96.7 1165.1 96.7 1164.4 97.1L1131.3 130.3C1130.5 130.7 1130.1 131.4 1130.1 132.3V142.8H1100.7C1099.5 142.8 1098.5 143.8 1098.5 145V189.6H1084V111C1084 109.2 1082 108.2 1080.5 109.1L1050.2 129.1C1049.6 129.5 1049.2 130.2 1049.2 131L1049.9 151.4H1014.5V112.7C1014.5 112.2 1014.3 111.7 1014 111.3L999 92.1C998.1 91 996.4 91 995.5 92.1L980.4 111.4C980.1 111.8 979.9 112.3 979.9 112.8V157.5L964.9 137.5L916.4 157.5V185.6H894.6C893.4 185.6 892.4 184.6 892.4 183.4V153.9C892.4 152.7 891.4 151.7 890.2 151.7H843.7C842.5 151.7 841.5 152.7 841.5 153.9V183.4C841.5 184.6 840.5 185.6 839.3 185.6H809.8C808.6 185.6 807.6 186.6 807.6 187.8V225.3H786.6V164.1C786.6 162.9 785.6 161.9 784.4 161.9H780.4C779.2 161.9 778.2 160.9 778.2 159.7V147.2C778.2 146 777.2 145 776 145H738C736.8 145 735.8 146 735.8 147.2V159.7C735.8 160.9 734.8 161.9 733.6 161.9H729.6C728.4 161.9 727.4 162.9 727.4 164.1V225.3H712.3V146.9C712.3 145.1 710.3 144.1 708.8 145L678.5 165C677.9 165.4 677.5 166.1 677.5 166.9L678.2 225.3H661.9V207.9C661.9 207 661.3 206.1 660.4 205.8L616.7 189.9C616 170.2 615.5 165.9 615.3 164.5C615.3 164.2 615.2 164 615.2 163.8V158.5C615.2 156.9 613.6 155.8 612.1 156.4L565.6 188.8C564.8 189.1 564.2 190 564.2 190.9V225.3H547V164.2C547 163.4 546.6 162.6 545.9 162.3L509.9 124.3C509.3 123.9 508.5 123.9 507.8 124.3L467.7 155.3C466.9 155.7 466.5 156.4 466.5 157.3V212.5H442.1V147.3C442.1 146.7 441.7 146.1 441.1 145.9L406.6 133.4C406 133.2 405.6 132.6 405.6 132V118.7C405.6 117.6 404.5 116.9 403.5 117.3L366.7 132.6C366.1 132.8 365.8 133.4 365.8 134V212.6H352.6V125C352.6 124.5 352.3 124 351.8 123.7L323.4 107.9C323 107.7 322.5 107.6 322 107.9L290.4 123.7C289.9 124 289.6 124.5 289.6 125V212.6H265V135.7C265 135.4 264.9 135 264.7 134.8L252.6 119.4C252 118.6 250.9 118.6 250.3 119.4L238 134.7C237.8 135 237.7 135.3 237.7 135.6V212.5H220.3V147.9C220.3 147.1 219.6 146.4 218.8 146.4H198.6C197.8 146.4 197.1 145.7 197.1 144.9V120.5C197.1 120.1 196.9 119.7 196.7 119.5L171.7 94.5C171.1 93.9 170.2 93.9 169.6 94.5L144.6 119.5C144.3 119.8 144.2 120.2 144.2 120.5V128.3C144.2 129.1 143.5 129.8 142.7 129.8H122.5C121.7 129.8 121 130.5 121 131.3V172.5H113V125.4C113 124.2 111.7 123.5 110.7 124.2L86.6 140.1C86.2 140.4 85.9 140.9 85.9 141.4L86.6 212.5H77.8V135.9C77.8 135.1 77.1 134.4 76.3 134.4H72.6C71.8 134.4 71.1 133.7 71.1 132.9V122.6C71.1 121.8 70.4 121.1 69.6 121.1H56.2V101.2C56.2 100.3 55.5 99.5 54.5 99.5C53.5 99.5 52.8 100.2 52.8 101.2V121.1H39.4C38.6 121.1 37.9 121.8 37.9 122.6V132.9C37.9 133.7 37.2 134.4 36.4 134.4H32.7C31.9 134.4 31.6 135.1 31.6 135.9V177C31.4 177.3 31.6 177.6 31.6 177.9V249.7H474.8C476.6 249.7 478.1 251.5 478.1 249.7H1233.8C1233.3 246.2 1232.9 242.7 1232.4 239.2" fill="url(#paint2_linear_355_3779)"/>
<path d="M1789.7 204.3L1749.5 235.3C1748.7 235.7 1748.3 236.4 1748.3 237.3V215.3H1738.3V239.7H1825.3L1791.7 204.3C1791.1 204 1790.3 204 1789.7 204.3Z" fill="url(#paint3_linear_355_3779)"/>
<path d="M1825.3 239.7L1827.7 242.2C1828.4 242.6 1828.9 243.3 1828.9 244.1V239.6H1825.3V239.7Z" fill="url(#paint4_linear_355_3779)"/>
<path d="M2069.2 215.3V154.1C2069.2 152.9 2067.5 151.9 2066.3 151.9H2062.3C2061.1 151.9 2060.1 150.9 2060.1 149.7V137.2C2060.1 136 2059.1 135 2057.9 135H2019.9C2018.7 135 2017.7 136 2017.7 137.2V149.7C2017.7 150.9 2016.7 151.9 2015.5 151.9H2011.5C2010.3 151.9 2009.3 152.9 2009.3 154.1V215.3H1994V136.9C1994 135.1 1992 134.1 1990.5 135L1960.2 155C1959.6 155.4 1959.2 156.1 1959.2 156.9L1959.9 215.3H1943.6V197.9C1943.6 197 1943 196.1 1942.1 195.8L1898.3 179.9C1897.4 155.6 1896.8 154.7 1896.8 153.8V148.5C1896.8 146.9 1895.2 145.8 1893.7 146.4L1847.2 178.8C1846.4 179.1 1845.8 180 1845.8 180.9V215.3H1828.6V239.7H2068.9" fill="url(#paint5_linear_355_3779)"/>
<path d="M1418.9 266C1441.8 266 1460.4 247.4 1460.4 224.5C1460.4 201.6 1441.8 183 1418.9 183C1396 183 1377.4 201.6 1377.4 224.5C1377.4 247.4 1395.9 266 1418.9 266Z" fill="#189CAE"/>
<path d="M1540.8 266C1563.7 266 1582.3 247.4 1582.3 224.5C1582.3 201.6 1563.7 183 1540.8 183C1517.9 183 1499.3 201.6 1499.3 224.5C1499.3 247.4 1517.9 266 1540.8 266Z" fill="#189CAE"/>
<path d="M1662.8 266C1685.7 266 1704.3 247.4 1704.3 224.5C1704.3 201.6 1685.7 183 1662.8 183C1639.9 183 1621.3 201.6 1621.3 224.5C1621.3 247.4 1639.9 266 1662.8 266Z" fill="#189CAE"/>
<path d="M1784.8 266C1807.7 266 1826.3 247.4 1826.3 224.5C1826.3 201.6 1807.7 183 1784.8 183C1761.9 183 1743.3 201.6 1743.3 224.5C1743.2 247.4 1761.8 266 1784.8 266Z" fill="#189CAE"/>
<path d="M2079.5 247.3H25.3V296H2079.5V247.3Z" fill="url(#paint6_linear_355_3779)"/>
<path d="M2079.4 237H25.3V249H2079.5V237H2079.4Z" fill="#3ECBDC"/>
<path fill-rule="evenodd" clip-rule="evenodd" d="M2065 219.9C2058.4 216.9 2048.6 221.2 2044.3 226.1C2040.5 221.9 2034.8 219.2 2028.3 219.2C2026.6 219.2 2025 219.4 2023.5 219.7C2019.1 212.9 2010.8 208.3 2001.5 208.3C1993.8 208.3 1986.9 211.4 1982.2 216.3C1977.5 211.4 1970.6 208.3 1962.9 208.3C1953.5 208.3 1945.3 212.9 1940.9 219.7C1939.3 219.4 1937.7 219.2 1936.1 219.2C1929.6 219.2 1923.9 221.9 1920.1 226.1C1916.3 221.9 1910.6 219.2 1904.1 219.2C1902.4 219.2 1900.8 219.4 1899.3 219.7C1894.8 212.9 1886.6 208.3 1877.2 208.3C1869.9 208.3 1863.3 211.1 1858.7 215.5C1854 211.1 1847.5 208.3 1840.2 208.3C1830.8 208.3 1822.6 212.9 1818.2 219.7C1816.6 219.4 1815 219.2 1813.4 219.2C1806.8 219.2 1800.9 222 1797.1 226.4V209.3C1798.3 209.8 1799.6 210.1 1801 210.1C1806.1 210.1 1810.3 206 1810.3 201C1810.3 196.5 1807 192.8 1802.6 192.1C1802.8 191.3 1803 190.4 1803 189.6C1803 184.2 1798.5 179.9 1793.1 179.9C1787.7 179.9 1783.2 184.3 1783.2 189.6C1783.2 190.9 1783.5 192.2 1784 193.3C1780.9 194.9 1778.8 198 1778.8 201.7C1778.8 206.9 1783.1 211.1 1788.5 211.1C1790.1 211.1 1791.5 210.7 1792.8 210.1V227.1C1789.1 222.3 1782.9 219.1 1775.9 219.1C1774.2 219.1 1772.6 219.3 1771.1 219.6C1766.7 212.8 1758.4 208.2 1749.1 208.2C1741.8 208.2 1735.2 211 1730.6 215.4C1725.9 211 1719.4 208.2 1712.1 208.2C1702.7 208.2 1694.5 212.8 1690.1 219.6C1688.5 219.3 1686.9 219.1 1685.3 219.1C1678.8 219.1 1673.1 221.8 1669.3 226C1665.5 221.8 1659.8 219.1 1653.3 219.1C1651.6 219.1 1650 219.3 1648.5 219.6C1644.1 212.8 1635.9 208.2 1626.5 208.2C1614.8 208.2 1605 215.3 1601.9 224.9C1598.2 221.3 1592.9 219.1 1587 219.1C1585.3 219.1 1583.7 219.3 1582.2 219.6C1577.8 212.8 1569.5 208.2 1560.2 208.2C1553 208.2 1546.4 210.9 1541.7 215.3C1537 210.9 1530.5 208.2 1523.3 208.2H1523.2C1513.8 208.2 1505.6 212.8 1501.2 219.6C1500.2 219.4 1499.2 219.2 1498.2 219.2C1497.6 219.2 1497 219.1 1496.4 219.1C1490.9 219.1 1485.9 221.1 1482.2 224.3V210.1C1483.5 210.7 1485 211.1 1486.5 211.1C1491.8 211.1 1496.2 206.9 1496.2 201.7C1496.2 198.1 1494.1 194.9 1491 193.3C1491.5 192.2 1491.8 190.9 1491.8 189.6C1491.8 184.2 1487.4 179.9 1481.9 179.9C1476.4 179.9 1472 184.3 1472 189.6C1472 190.5 1472.1 191.3 1472.3 192.1C1468 192.9 1464.7 196.6 1464.7 201C1464.7 206 1468.9 210.1 1474 210.1C1475.4 210.1 1476.7 209.8 1477.9 209.3V223.5C1474.8 221.2 1471 219.6 1466.8 219.2C1466.1 219.1 1465.3 219.1 1464.6 219.1C1463 219.1 1461.4 219.3 1459.9 219.6C1455.9 213.5 1448.8 209.1 1440.6 208.3C1439.7 208.2 1438.7 208.2 1437.8 208.2C1430.5 208.2 1424 210.9 1419.3 215.3C1414.6 210.9 1408.1 208.2 1400.8 208.2C1391.4 208.2 1383.2 212.8 1378.7 219.6C1377.2 219.3 1375.5 219.1 1373.9 219.1C1369.4 219.1 1365.2 220.4 1361.8 222.6C1358 214.1 1348.8 208.2 1338.1 208.2C1328.7 208.2 1320.5 212.8 1316 219.6C1314.4 219.3 1312.8 219.1 1311.2 219.1C1305.2 219.1 1299.8 221.5 1296 225.2V206.4C1297.2 206.9 1298.5 207.2 1299.9 207.2C1305 207.2 1309.2 203.1 1309.2 198.1C1309.2 193.6 1305.9 189.9 1301.5 189.2C1301.7 188.4 1301.8 187.5 1301.8 186.7C1301.8 181.3 1297.4 177 1291.9 177C1286.4 177 1282 181.4 1282 186.7C1282 188 1282.3 189.3 1282.8 190.4C1279.7 192 1277.6 195.1 1277.6 198.8C1277.6 204 1281.9 208.2 1287.3 208.2C1288.9 208.2 1290.3 207.8 1291.6 207.2V222.9C1288.2 220.6 1283.9 219.2 1279.3 219.2C1277.6 219.2 1276 219.4 1274.5 219.7C1270.1 212.9 1261.8 208.3 1252.4 208.3C1245.1 208.3 1238.5 211.1 1233.9 215.5C1229.2 211.1 1222.7 208.3 1215.4 208.3C1206 208.3 1197.8 212.9 1193.4 219.7C1192.5 219.5 1191.7 219.4 1190.8 219.3C1186.3 212.7 1178.2 208.3 1169 208.3C1159.8 208.3 1151.4 212.9 1146.9 219.7C1145.4 219.4 1143.7 219.2 1142.1 219.2C1135.6 219.2 1129.9 221.9 1126.1 226.1C1126 225.9 1125.8 225.8 1125.7 225.6V206.4C1126.9 206.9 1128.2 207.2 1129.6 207.2C1134.7 207.2 1138.9 203.1 1138.9 198.1C1138.9 193.6 1135.6 189.9 1131.2 189.2C1131.4 188.4 1131.5 187.5 1131.5 186.7C1131.5 181.3 1127.1 177 1121.6 177C1116.1 177 1111.7 181.4 1111.7 186.7C1111.7 188 1112 189.3 1112.5 190.4C1109.4 192 1107.3 195.1 1107.3 198.8C1107.3 204 1111.6 208.2 1117 208.2C1118.6 208.2 1120 207.8 1121.3 207.2V222.1C1118.1 220.2 1114.3 219.1 1110.2 219.1C1108.5 219.1 1106.9 219.3 1105.4 219.6C1101 212.8 1092.7 208.2 1083.4 208.2C1076.1 208.2 1069.5 211 1064.9 215.4C1060.2 211 1053.7 208.2 1046.4 208.2C1037 208.2 1028.8 212.8 1024.4 219.6C1022.8 219.3 1021.2 219.1 1019.6 219.1C1011.2 219.1 1004 223.6 1000.8 230.1C997.6 223.6 990.4 219.1 982 219.1C980.3 219.1 978.7 219.3 977.2 219.6C972.8 212.8 964.5 208.2 955.2 208.2C947.9 208.2 941.3 211 936.7 215.4C932 211 925.5 208.2 918.2 208.2C908.8 208.2 900.6 212.8 896.2 219.6C894.6 219.3 893 219.1 891.4 219.1C890 219.1 888.6 219.2 887.2 219.5V206.4C888.4 206.9 889.7 207.2 891.1 207.2C896.2 207.2 900.4 203.1 900.4 198.1C900.4 193.6 897.1 189.9 892.8 189.2C893 188.4 893.2 187.5 893.2 186.7C893.2 181.3 888.8 177 883.3 177C877.8 177 873.4 181.4 873.4 186.7C873.4 188 873.7 189.3 874.2 190.4C871.1 192 869 195.1 869 198.8C869 204 873.3 208.2 878.7 208.2C880.3 208.2 881.7 207.8 883 207.2V220.9C880.1 222.1 877.6 223.9 875.7 226.1C871.9 221.9 866.2 219.2 859.7 219.2C858 219.2 856.4 219.4 854.9 219.7C850.5 212.9 842.2 208.3 832.8 208.3C821.1 208.3 811.3 215.4 808.2 225C804.5 221.4 799.2 219.2 793.3 219.2C791.6 219.2 790 219.4 788.5 219.7C784.1 212.9 775.8 208.3 766.5 208.3C759.2 208.3 752.6 211.1 748 215.5C743.3 211.1 736.8 208.3 729.5 208.3C720.1 208.3 711.9 212.9 707.5 219.7C705.9 219.4 704.3 219.2 702.7 219.2C696.2 219.2 690.5 221.9 686.7 226.1C682.9 221.9 677.2 219.2 670.7 219.2C669 219.2 667.4 219.4 665.9 219.7C661.5 212.9 653.2 208.3 643.9 208.3C636.2 208.3 629.3 211.4 624.6 216.3C619.9 211.4 613 208.3 605.3 208.3C595.9 208.3 587.7 212.9 583.2 219.7C581.6 219.4 580 219.2 578.4 219.2C571.9 219.2 566.2 221.9 562.4 226.1C558.6 221.9 552.9 219.2 546.4 219.2C544.7 219.2 543.1 219.4 541.6 219.7C537.2 212.9 528.9 208.3 519.6 208.3C512.3 208.3 505.7 211.1 501.1 215.5C496.4 211.1 489.9 208.3 482.6 208.3C473.2 208.3 465 212.9 460.6 219.7C459 219.4 457.4 219.2 455.8 219.2C449.2 219.2 443.3 222 439.5 226.4V209.3C440.7 209.8 442 210.1 443.4 210.1C448.5 210.1 452.7 206 452.7 201C452.7 196.5 449.4 192.8 445.1 192.1C445.3 191.3 445.5 190.4 445.5 189.6C445.5 184.2 441.1 179.9 435.6 179.9C430.1 179.9 425.7 184.3 425.7 189.6C425.7 190.9 426 192.2 426.5 193.3C423.4 194.9 421.3 198 421.3 201.7C421.3 206.9 425.6 211.1 431 211.1C432.6 211.1 434 210.7 435.3 210.1V227.1C431.6 222.3 425.4 219.1 418.4 219.1C416.7 219.1 415.1 219.3 413.6 219.6C409.2 212.8 400.9 208.2 391.6 208.2C384.3 208.2 377.7 211 373.1 215.4C368.4 211 361.9 208.2 354.6 208.2C345.2 208.2 337 212.8 332.6 219.6C331 219.3 329.4 219.1 327.8 219.1C321.3 219.1 315.6 221.8 311.8 226C308 221.8 302.3 219.1 295.8 219.1C294.1 219.1 292.5 219.3 291 219.6C286.6 212.8 278.4 208.2 268.9 208.2C257.2 208.2 247.4 215.3 244.3 224.9C240.6 221.3 235.3 219.1 229.4 219.1C227.7 219.1 226.1 219.3 224.6 219.6C220.2 212.8 211.9 208.2 202.6 208.2C195.3 208.2 188.7 211 184.1 215.4C179.4 211 172.9 208.2 165.6 208.2C156.2 208.2 148 212.8 143.6 219.6C142 219.3 140.4 219.1 138.8 219.1C133.3 219.1 128.3 221.1 124.6 224.3V210.1C125.9 210.7 127.4 211.1 128.9 211.1C134.2 211.1 138.6 206.9 138.6 201.7C138.6 198.1 136.5 194.9 133.4 193.3C133.9 192.2 134.2 190.9 134.2 189.6C134.2 184.2 129.8 179.9 124.3 179.9C118.8 179.9 114.4 184.3 114.4 189.6C114.4 190.5 114.5 191.3 114.8 192.1C110.5 192.9 107.2 196.6 107.2 201C107.2 206 111.4 210.1 116.5 210.1C117.9 210.1 119.2 209.8 120.4 209.3V223.6C116.8 220.8 112.2 219.1 107.1 219.1C105.4 219.1 103.8 219.3 102.3 219.6C97.9 212.8 89.6 208.2 80.3 208.2C66.2 208.2 54.7 218.6 54.7 231.3C54.7 233.4 55 235.4 55.6 237.3H121.5C121.8 237.5 122.2 237.6 122.5 237.6C122.9 237.6 123.2 237.5 123.5 237.3H436.8C437.1 237.5 437.5 237.6 437.8 237.6C438.2 237.6 438.5 237.5 438.8 237.3H1480.3C1480.6 237.5 1481 237.6 1481.3 237.6C1481.7 237.6 1482 237.5 1482.3 237.3H1795.6C1795.9 237.5 1796.3 237.6 1796.6 237.6C1797 237.6 1797.3 237.5 1797.6 237.3C1802.5 237.3 1807.4 237.3 1812.3 237.3C1825 237.3 1837.7 237.3 1850.3 237.3C1867.7 237.3 1885.2 237.3 1902.6 237.3C1921.8 237.3 1941 237.3 1960.1 237.3C1978 237.3 1995.9 237.3 2013.8 237.3C2027.4 237.3 2041 237.3 2054.6 237.3C2060.9 237.3 2067.3 237.5 2073.6 237.2C2073.4 234.4 2073.5 231.5 2072.9 228.7C2072.4 225.9 2071.3 223.1 2069.1 221.3C2066.6 220.8 2065.8 220.3 2065 219.9Z" fill="#6DDAE7"/>
<path d="M1703.6 154.7C1703.6 147.4 1695.6 139.8 1685.5 139.8H1583.2C1581.2 139.8 1579.6 141.4 1579.6 143.4V155.1H1703.6C1703.6 155 1703.6 154.8 1703.6 154.7Z" fill="white"/>
<path d="M1582.5 161.1H1700.4C1701.9 161.1 1703.5 157.8 1703.7 155.1H1579.7V158.2C1579.6 159.8 1580.9 161.1 1582.5 161.1Z" fill="#49D1E1"/>
<path d="M1688 142.5C1689 142.1 1693 142.8 1696.1 145.9C1698.7 148.5 1699.1 149.7 1699 150.3C1699 150.8 1698.4 151.8 1697.5 151.8H1688.9C1688.1 151.8 1687.3 151.3 1687.3 150.7V144.2C1687.4 143.2 1687.5 142.7 1688 142.5Z" fill="#49D1E1"/>
<path d="M1607.1 144.1H1603.9C1603 144.1 1602.3 144.8 1602.3 145.7V147.7C1602.3 148.6 1603 149.3 1603.9 149.3H1607.1C1608 149.3 1608.8 148.6 1608.8 147.7V145.7C1608.7 144.9 1608 144.1 1607.1 144.1Z" fill="#49D1E1"/>
<path d="M1599.3 144.1H1596.1C1595.2 144.1 1594.5 144.8 1594.5 145.7V147.7C1594.5 148.6 1595.2 149.3 1596.1 149.3H1599.3C1600.2 149.3 1601 148.6 1601 147.7V145.7C1601 144.9 1600.2 144.1 1599.3 144.1Z" fill="#49D1E1"/>
<path d="M1591.6 144.1H1588.4C1587.5 144.1 1586.8 144.8 1586.8 145.7V147.7C1586.8 148.6 1587.5 149.3 1588.4 149.3H1591.6C1592.5 149.3 1593.3 148.6 1593.3 147.7V145.7C1593.2 144.9 1592.5 144.1 1591.6 144.1Z" fill="#49D1E1"/>
<path d="M1614.8 144.1H1611.6C1610.7 144.1 1610 144.8 1610 145.7V147.7C1610 148.6 1610.7 149.3 1611.6 149.3H1614.8C1615.7 149.3 1616.4 148.6 1616.4 147.7V145.7C1616.5 144.9 1615.7 144.1 1614.8 144.1Z" fill="#49D1E1"/>
<path d="M1622.6 144.1H1619.4C1618.5 144.1 1617.7 144.8 1617.7 145.7V147.7C1617.7 148.6 1618.4 149.3 1619.4 149.3H1622.6C1623.5 149.3 1624.2 148.6 1624.2 147.7V145.7C1624.2 144.9 1623.5 144.1 1622.6 144.1Z" fill="#49D1E1"/>
<path d="M1630.4 144.1H1627.2C1626.3 144.1 1625.5 144.8 1625.5 145.7V147.7C1625.5 148.6 1626.2 149.3 1627.2 149.3H1630.4C1631.3 149.3 1632 148.6 1632 147.7V145.7C1632 144.9 1631.3 144.1 1630.4 144.1Z" fill="#49D1E1"/>
<path d="M1638.1 144.1H1634.9C1634 144.1 1633.2 144.8 1633.2 145.7V147.7C1633.2 148.6 1633.9 149.3 1634.9 149.3H1638.1C1639 149.3 1639.7 148.6 1639.7 147.7V145.7C1639.7 144.9 1639 144.1 1638.1 144.1Z" fill="#49D1E1"/>
<path d="M1645.9 144.1H1642.7C1641.8 144.1 1641.1 144.8 1641.1 145.7V147.7C1641.1 148.6 1641.8 149.3 1642.7 149.3H1645.9C1646.8 149.3 1647.5 148.6 1647.5 147.7V145.7C1647.5 144.9 1646.8 144.1 1645.9 144.1Z" fill="#49D1E1"/>
<path d="M1653.6 144.1H1650.4C1649.5 144.1 1648.8 144.8 1648.8 145.7V147.7C1648.8 148.6 1649.5 149.3 1650.4 149.3H1653.6C1654.5 149.3 1655.2 148.6 1655.2 147.7V145.7C1655.3 144.9 1654.5 144.1 1653.6 144.1Z" fill="#49D1E1"/>
<path d="M1661.4 144.1H1658.2C1657.3 144.1 1656.6 144.8 1656.6 145.7V147.7C1656.6 148.6 1657.3 149.3 1658.2 149.3H1661.4C1662.3 149.3 1663 148.6 1663 147.7V145.7C1663 144.9 1662.3 144.1 1661.4 144.1Z" fill="#49D1E1"/>
<path d="M1669.1 144.1H1665.9C1665 144.1 1664.3 144.8 1664.3 145.7V147.7C1664.3 148.6 1665 149.3 1665.9 149.3H1669.1C1670 149.3 1670.7 148.6 1670.7 147.7V145.7C1670.8 144.9 1670 144.1 1669.1 144.1Z" fill="#49D1E1"/>
<path d="M1679 142.6H1682.2C1683.1 142.6 1683.8 143.3 1683.8 144.2V155H1677.3V144.3C1677.4 143.4 1678.1 142.6 1679 142.6Z" fill="#49D1E1"/>
<path d="M1590.6 163.2C1591.4 163.2 1592.1 162.5 1592.1 161.7C1592.1 160.9 1591.4 160.2 1590.6 160.2C1589.8 160.2 1589.1 160.9 1589.1 161.7C1589.1 162.5 1589.7 163.2 1590.6 163.2Z" fill="#188DA1"/>
<path d="M1599.2 163.2C1600 163.2 1600.7 162.5 1600.7 161.7C1600.7 160.9 1600 160.2 1599.2 160.2C1598.4 160.2 1597.7 160.9 1597.7 161.7C1597.7 162.5 1598.3 163.2 1599.2 163.2Z" fill="#188DA1"/>
<path d="M1588.5 159.4H1600.7C1601.3 159.4 1601.7 159.9 1601.7 160.4V161.8H1587.4V160.4C1587.5 159.8 1588 159.4 1588.5 159.4Z" fill="#C4FDFE"/>
<path d="M1635.2 163.2C1636 163.2 1636.7 162.5 1636.7 161.7C1636.7 160.9 1636 160.2 1635.2 160.2C1634.4 160.2 1633.7 160.9 1633.7 161.7C1633.7 162.5 1634.3 163.2 1635.2 163.2Z" fill="#188DA1"/>
<path d="M1643.8 163.2C1644.6 163.2 1645.3 162.5 1645.3 161.7C1645.3 160.9 1644.6 160.2 1643.8 160.2C1643 160.2 1642.3 160.9 1642.3 161.7C1642.3 162.5 1642.9 163.2 1643.8 163.2Z" fill="#188DA1"/>
<path d="M1633.1 159.4H1645.3C1645.8 159.4 1646.3 159.9 1646.3 160.4V161.8H1632V160.4C1632.1 159.8 1632.6 159.4 1633.1 159.4Z" fill="#C4FDFE"/>
<path d="M1680 163.2C1680.8 163.2 1681.5 162.5 1681.5 161.7C1681.5 160.9 1680.8 160.2 1680 160.2C1679.2 160.2 1678.5 160.9 1678.5 161.7C1678.6 162.5 1679.2 163.2 1680 163.2Z" fill="#188DA1"/>
<path d="M1688.7 163.2C1689.5 163.2 1690.2 162.5 1690.2 161.7C1690.2 160.9 1689.5 160.2 1688.7 160.2C1687.9 160.2 1687.2 160.9 1687.2 161.7C1687.2 162.5 1687.8 163.2 1688.7 163.2Z" fill="#188DA1"/>
<path d="M1678 159.4H1690.2C1690.8 159.4 1691.2 159.9 1691.2 160.4V161.8H1677V160.4C1677 159.8 1677.5 159.4 1678 159.4Z" fill="#C4FDFE"/>
<path d="M1576.6 143.4C1576.6 141.5 1575 139.9 1573.1 139.9H1506.6C1504.6 139.9 1503.1 141.5 1503.1 143.4V155H1576.7L1576.6 143.4Z" fill="white"/>
<path d="M1506.5 161.5H1573C1575 161.5 1576.5 159.9 1576.5 158V155H1503V157.9C1503 159.9 1504.6 161.5 1506.5 161.5Z" fill="#49D1E1"/>
<path d="M1558.3 163.2C1559.1 163.2 1559.8 162.5 1559.8 161.7C1559.8 160.9 1559.1 160.2 1558.3 160.2C1557.5 160.2 1556.8 160.9 1556.8 161.7C1556.8 162.5 1557.5 163.2 1558.3 163.2Z" fill="#188DA1"/>
<path d="M1566.9 163.2C1567.7 163.2 1568.4 162.5 1568.4 161.7C1568.4 160.9 1567.7 160.2 1566.9 160.2C1566.1 160.2 1565.4 160.9 1565.4 161.7C1565.4 162.5 1566.1 163.2 1566.9 163.2Z" fill="#188DA1"/>
<path d="M1556.3 159.4H1568.5C1569 159.4 1569.5 159.9 1569.5 160.4V161.8H1555.2V160.4C1555.3 159.8 1555.7 159.4 1556.3 159.4Z" fill="#C4FDFE"/>
<path d="M1513.1 163.2C1513.9 163.2 1514.6 162.5 1514.6 161.7C1514.6 160.9 1513.9 160.2 1513.1 160.2C1512.3 160.2 1511.6 160.9 1511.6 161.7C1511.6 162.5 1512.3 163.2 1513.1 163.2Z" fill="#188DA1"/>
<path d="M1521.7 163.2C1522.5 163.2 1523.2 162.5 1523.2 161.7C1523.2 160.9 1522.5 160.2 1521.7 160.2C1520.9 160.2 1520.2 160.9 1520.2 161.7C1520.2 162.5 1520.9 163.2 1521.7 163.2Z" fill="#188DA1"/>
<path d="M1511.1 159.4H1523.3C1523.8 159.4 1524.3 159.9 1524.3 160.4V161.8H1510V160.4C1510.1 159.8 1510.6 159.4 1511.1 159.4Z" fill="#C4FDFE"/>
<path d="M1514.5 144.1H1511.3C1510.4 144.1 1509.7 144.8 1509.7 145.7V147.7C1509.7 148.6 1510.4 149.3 1511.3 149.3H1514.5C1515.4 149.3 1516.1 148.6 1516.1 147.7V145.7C1516.1 144.8 1515.4 144.1 1514.5 144.1Z" fill="#49D1E1"/>
<path d="M1522.2 144.1H1519C1518.1 144.1 1517.4 144.8 1517.4 145.7V147.7C1517.4 148.6 1518.1 149.3 1519 149.3H1522.2C1523.1 149.3 1523.8 148.6 1523.8 147.7V145.7C1523.9 144.8 1523.1 144.1 1522.2 144.1Z" fill="#49D1E1"/>
<path d="M1530 144.1H1526.8C1525.9 144.1 1525.2 144.8 1525.2 145.7V147.7C1525.2 148.6 1525.9 149.3 1526.8 149.3H1530C1530.9 149.3 1531.6 148.6 1531.6 147.7V145.7C1531.6 144.8 1530.9 144.1 1530 144.1Z" fill="#49D1E1"/>
<path d="M1537.7 144.1H1534.5C1533.6 144.1 1532.9 144.8 1532.9 145.7V147.7C1532.9 148.6 1533.6 149.3 1534.5 149.3H1537.7C1538.6 149.3 1539.3 148.6 1539.3 147.7V145.7C1539.4 144.8 1538.6 144.1 1537.7 144.1Z" fill="#49D1E1"/>
<path d="M1545.5 144.1H1542.3C1541.4 144.1 1540.7 144.8 1540.7 145.7V147.7C1540.7 148.6 1541.4 149.3 1542.3 149.3H1545.5C1546.4 149.3 1547.1 148.6 1547.1 147.7V145.7C1547.1 144.8 1546.4 144.1 1545.5 144.1Z" fill="#49D1E1"/>
<path d="M1553.2 144.1H1550C1549.1 144.1 1548.4 144.8 1548.4 145.7V147.7C1548.4 148.6 1549.1 149.3 1550 149.3H1553.2C1554.1 149.3 1554.8 148.6 1554.8 147.7V145.7C1554.9 144.8 1554.1 144.1 1553.2 144.1Z" fill="#49D1E1"/>
<path d="M1561 144.1H1557.8C1556.9 144.1 1556.2 144.8 1556.2 145.7V147.7C1556.2 148.6 1556.9 149.3 1557.8 149.3H1561C1561.9 149.3 1562.6 148.6 1562.6 147.7V145.7C1562.6 144.8 1561.9 144.1 1561 144.1Z" fill="#49D1E1"/>
<path d="M1568.8 144.1H1565.6C1564.7 144.1 1564 144.8 1564 145.7V147.7C1564 148.6 1564.7 149.3 1565.6 149.3H1568.8C1569.7 149.3 1570.4 148.6 1570.4 147.7V145.7C1570.4 144.8 1569.7 144.1 1568.8 144.1Z" fill="#49D1E1"/>
<path d="M1500 143.4C1500 141.5 1498.4 139.9 1496.5 139.9H1430C1428 139.9 1426.5 141.5 1426.5 143.4V155H1500.1L1500 143.4Z" fill="white"/>
<path d="M1429.9 161.5H1496.4C1498.3 161.5 1499.9 159.9 1499.9 158V155H1426.3V157.9C1426.4 159.9 1427.9 161.5 1429.9 161.5Z" fill="#49D1E1"/>
<path d="M1481.6 163.2C1482.4 163.2 1483.1 162.5 1483.1 161.7C1483.1 160.9 1482.4 160.2 1481.6 160.2C1480.8 160.2 1480.1 160.9 1480.1 161.7C1480.2 162.5 1480.8 163.2 1481.6 163.2Z" fill="#188DA1"/>
<path d="M1490.2 163.2C1491 163.2 1491.7 162.5 1491.7 161.7C1491.7 160.9 1491 160.2 1490.2 160.2C1489.4 160.2 1488.7 160.9 1488.7 161.7C1488.8 162.5 1489.4 163.2 1490.2 163.2Z" fill="#188DA1"/>
<path d="M1479.6 159.4H1491.8C1492.3 159.4 1492.8 159.9 1492.8 160.4V161.8H1478.5V160.4C1478.6 159.8 1479.1 159.4 1479.6 159.4Z" fill="#C4FDFE"/>
<path d="M1436.5 163.2C1437.3 163.2 1438 162.5 1438 161.7C1438 160.9 1437.3 160.2 1436.5 160.2C1435.7 160.2 1435 160.9 1435 161.7C1435 162.5 1435.7 163.2 1436.5 163.2Z" fill="#188DA1"/>
<path d="M1445.1 163.2C1445.9 163.2 1446.6 162.5 1446.6 161.7C1446.6 160.9 1445.9 160.2 1445.1 160.2C1444.3 160.2 1443.6 160.9 1443.6 161.7C1443.6 162.5 1444.3 163.2 1445.1 163.2Z" fill="#188DA1"/>
<path d="M1434.5 159.4H1446.7C1447.2 159.4 1447.7 159.9 1447.7 160.4V161.8H1433.5V160.4C1433.5 159.8 1433.9 159.4 1434.5 159.4Z" fill="#C4FDFE"/>
<path d="M1437.8 144.1H1434.6C1433.7 144.1 1433 144.8 1433 145.7V147.7C1433 148.6 1433.7 149.3 1434.6 149.3H1437.8C1438.7 149.3 1439.4 148.6 1439.4 147.7V145.7C1439.5 144.9 1438.7 144.1 1437.8 144.1Z" fill="#49D1E1"/>
<path d="M1445.6 144.1H1442.4C1441.5 144.1 1440.8 144.8 1440.8 145.7V147.7C1440.8 148.6 1441.5 149.3 1442.4 149.3H1445.6C1446.5 149.3 1447.2 148.6 1447.2 147.7V145.7C1447.2 144.9 1446.5 144.1 1445.6 144.1Z" fill="#49D1E1"/>
<path d="M1453.3 144.1H1450.1C1449.2 144.1 1448.5 144.8 1448.5 145.7V147.7C1448.5 148.6 1449.2 149.3 1450.1 149.3H1453.3C1454.2 149.3 1454.9 148.6 1454.9 147.7V145.7C1455 144.9 1454.3 144.1 1453.3 144.1Z" fill="#49D1E1"/>
<path d="M1461.1 144.1H1457.9C1457 144.1 1456.3 144.8 1456.3 145.7V147.7C1456.3 148.6 1457 149.3 1457.9 149.3H1461.1C1462 149.3 1462.7 148.6 1462.7 147.7V145.7C1462.7 144.9 1462 144.1 1461.1 144.1Z" fill="#49D1E1"/>
<path d="M1468.9 144.1H1465.7C1464.8 144.1 1464.1 144.8 1464.1 145.7V147.7C1464.1 148.6 1464.8 149.3 1465.7 149.3H1468.9C1469.8 149.3 1470.5 148.6 1470.5 147.7V145.7C1470.5 144.9 1469.8 144.1 1468.9 144.1Z" fill="#49D1E1"/>
<path d="M1476.6 144.1H1473.4C1472.5 144.1 1471.8 144.8 1471.8 145.7V147.7C1471.8 148.6 1472.5 149.3 1473.4 149.3H1476.6C1477.5 149.3 1478.2 148.6 1478.2 147.7V145.7C1478.3 144.9 1477.5 144.1 1476.6 144.1Z" fill="#49D1E1"/>
<path d="M1484.4 144.1H1481.2C1480.3 144.1 1479.6 144.8 1479.6 145.7V147.7C1479.6 148.6 1480.3 149.3 1481.2 149.3H1484.4C1485.3 149.3 1486 148.6 1486 147.7V145.7C1486 144.9 1485.3 144.1 1484.4 144.1Z" fill="#49D1E1"/>
<path d="M1492.1 144.1H1488.9C1488 144.1 1487.3 144.8 1487.3 145.7V147.7C1487.3 148.6 1488 149.3 1488.9 149.3H1492.1C1493 149.3 1493.7 148.6 1493.7 147.7V145.7C1493.8 144.9 1493 144.1 1492.1 144.1Z" fill="#49D1E1"/>
<path d="M539 263.8H402.1C401.7 263.8 401.4 263.5 401.4 263.1V239.7C401.4 229.8 409.5 221.7 419.4 221.7H526C533.6 221.7 539.8 227.9 539.8 235.5V263.1C539.7 263.5 539.4 263.8 539 263.8Z" fill="white"/>
<path d="M522.8 269.1C525.3 269.1 527.4 267.1 527.4 264.5C527.4 262 525.4 259.9 522.8 259.9C520.3 259.9 518.2 261.9 518.2 264.5C518.2 267.1 520.2 269.1 522.8 269.1Z" fill="#00C5C8"/>
<path d="M522.8 270.8C519.3 270.8 516.5 268 516.5 264.5C516.5 261 519.3 258.2 522.8 258.2C526.3 258.2 529.1 261 529.1 264.5C529.1 268 526.2 270.8 522.8 270.8ZM522.8 261.7C521.2 261.7 520 263 520 264.5C520 266.1 521.3 267.3 522.8 267.3C524.3 267.3 525.6 266 525.6 264.5C525.6 263 524.3 261.7 522.8 261.7Z" fill="#008184"/>
<path d="M508.7 269.1C511.2 269.1 513.3 267.1 513.3 264.5C513.3 262 511.3 259.9 508.7 259.9C506.1 259.9 504.1 261.9 504.1 264.5C504.1 267.1 506.2 269.1 508.7 269.1Z" fill="#00C5C8"/>
<path d="M508.7 270.8C505.2 270.8 502.4 268 502.4 264.5C502.4 261 505.2 258.2 508.7 258.2C512.2 258.2 515 261 515 264.5C515 268 512.2 270.8 508.7 270.8ZM508.7 261.7C507.1 261.7 505.9 263 505.9 264.5C505.9 266.1 507.2 267.3 508.7 267.3C510.3 267.3 511.5 266 511.5 264.5C511.5 263 510.2 261.7 508.7 261.7Z" fill="#008184"/>
<path d="M436.5 259.1H442.8C443.2 259.1 443.5 258.8 443.5 258.4V231.9C443.5 231.5 443.2 231.2 442.8 231.2H436.5C436.1 231.2 435.8 231.5 435.8 231.9V258.4C435.8 258.7 436.1 259.1 436.5 259.1Z" fill="#49D1E1"/>
<path d="M426.6 259.1H432.9C433.3 259.1 433.6 258.8 433.6 258.4V231.9C433.6 231.5 433.3 231.2 432.9 231.2H426.6C426.2 231.2 425.9 231.5 425.9 231.9V258.4C425.8 258.7 426.1 259.1 426.6 259.1Z" fill="#49D1E1"/>
<path d="M493 259.1H499.3C499.7 259.1 500 258.8 500 258.4V231.9C500 231.5 499.7 231.2 499.3 231.2H493C492.6 231.2 492.3 231.5 492.3 231.9V258.4C492.3 258.7 492.6 259.1 493 259.1Z" fill="#49D1E1"/>
<path d="M483 259.1H489.3C489.7 259.1 490 258.8 490 258.4V231.9C490 231.5 489.7 231.2 489.3 231.2H483C482.6 231.2 482.3 231.5 482.3 231.9V258.4C482.3 258.7 482.6 259.1 483 259.1Z" fill="#49D1E1"/>
<path d="M448.7 246.4H477.1C477.5 246.4 477.8 246.1 477.8 245.7V231.9C477.8 231.5 477.5 231.2 477.1 231.2H448.7C448.3 231.2 448 231.5 448 231.9V245.7C448 246.1 448.3 246.4 448.7 246.4Z" fill="#49D1E1"/>
<path d="M448.7 252.6H477.1C477.5 252.6 477.8 252.3 477.8 251.9V249.5C477.8 249.1 477.5 248.8 477.1 248.8H448.7C448.3 248.8 448 249.1 448 249.5V251.9C448 252.2 448.3 252.6 448.7 252.6Z" fill="#49D1E1"/>
<path d="M505.2 246.4H534.1C534.5 246.4 534.8 246.1 534.8 245.7V231.9C534.8 231.5 534.5 231.2 534.1 231.2H505.2C504.8 231.2 504.5 231.5 504.5 231.9V245.7C504.5 246.1 504.8 246.4 505.2 246.4Z" fill="#49D1E1"/>
<path d="M505.2 252.6H534.1C534.5 252.6 534.8 252.3 534.8 251.9V249.5C534.8 249.1 534.5 248.8 534.1 248.8H505.2C504.8 248.8 504.5 249.1 504.5 249.5V251.9C504.5 252.2 504.8 252.6 505.2 252.6Z" fill="#49D1E1"/>
<path d="M417.8 269.1C420.3 269.1 422.4 267.1 422.4 264.5C422.4 262 420.4 259.9 417.8 259.9C415.2 259.9 413.2 261.9 413.2 264.5C413.2 267.1 415.3 269.1 417.8 269.1Z" fill="#00C5C8"/>
<path d="M417.8 270.8C414.3 270.8 411.5 268 411.5 264.5C411.5 261 414.3 258.2 417.8 258.2C421.3 258.2 424.1 261 424.1 264.5C424.1 268 421.3 270.8 417.8 270.8ZM417.8 261.7C416.2 261.7 415 263 415 264.5C415 266.1 416.3 267.3 417.8 267.3C419.3 267.3 420.6 266 420.6 264.5C420.6 263 419.4 261.7 417.8 261.7Z" fill="#008184"/>
<path d="M408.4 253.1H415.7C416.5 253.1 417.2 252.4 417.2 251.6V232.2C417.2 231.4 416.5 230.7 415.7 230.7H409.8C409.5 230.7 409.2 230.9 409 231.3C408.5 232.1 408.2 232.8 407.8 233.8C407.2 235.6 406.9 237.7 406.9 239.7V251.8C407 252.5 407.7 253.1 408.4 253.1Z" fill="#49D1E1"/>
</g>
</g>
<defs>
<linearGradient id="paint0_linear_355_3779" x1="55.7265" y1="40.3396" x2="55.7265" y2="300.23" gradientUnits="userSpaceOnUse">
<stop stop-color="#00BFD5"/>
<stop offset="1" stop-color="#00BFD5" stop-opacity="0"/>
</linearGradient>
<linearGradient id="paint1_linear_355_3779" x1="1049.95" y1="40.3396" x2="1049.95" y2="273.005" gradientUnits="userSpaceOnUse">
<stop stop-color="#00BFD5"/>
<stop offset="1" stop-color="#00BFD5" stop-opacity="0"/>
</linearGradient>
<linearGradient id="paint2_linear_355_3779" x1="632.712" y1="92.9923" x2="632.764" y2="199.807" gradientUnits="userSpaceOnUse">
<stop stop-color="#49D1E1"/>
<stop offset="1" stop-color="#22BCCF"/>
</linearGradient>
<linearGradient id="paint3_linear_355_3779" x1="1781.7" y1="136.394" x2="1781.8" y2="219.823" gradientUnits="userSpaceOnUse">
<stop stop-color="#49D1E1"/>
<stop offset="1" stop-color="#22BCCF"/>
</linearGradient>
<linearGradient id="paint4_linear_355_3779" x1="1827" y1="136.339" x2="1827.1" y2="219.768" gradientUnits="userSpaceOnUse">
<stop stop-color="#49D1E1"/>
<stop offset="1" stop-color="#22BCCF"/>
</linearGradient>
<linearGradient id="paint5_linear_355_3779" x1="1948.97" y1="136.193" x2="1949.07" y2="219.619" gradientUnits="userSpaceOnUse">
<stop stop-color="#49D1E1"/>
<stop offset="1" stop-color="#22BCCF"/>
</linearGradient>
<linearGradient id="paint6_linear_355_3779" x1="1052.36" y1="247.255" x2="1052.36" y2="296" gradientUnits="userSpaceOnUse">
<stop stop-color="#0CAFC3"/>
<stop offset="1" stop-color="#6DDAE7"/>
</linearGradient>
<clipPath id="clip0_355_3779">
<rect width="2105" height="296" fill="white"/>
</clipPath>
<clipPath id="clip1_355_3779">
<rect width="2104.7" height="296" fill="white"/>
</clipPath>
</defs>
</svg>
